<?xml version="1.0" encoding="UTF-8" standalone="no"?>

<svg data-v-7d32def8="" version="1.0"
    xmlns="http://www.w3.org/2000/svg" preserveAspectRatio="xMidYMid meet" color-interpolation-filters="sRGB"
    xmlns:xlink="http://www.w3.org/1999/xlink" viewBox="0 0 370 260" width="100%" height="100%">
    <rect x="0" y="0" width="100%" height="100%" fill="transparent" rx="6" ry="6"></rect>
    <rect x="0" y="0" width="100%" height="100%" fill="url(#watermark)" rx="6" ry="6" fill-opacity=".03"></rect>
    <filter id="colorMatrixDefault">
        <feColorMatrix in="SourceGraphic" type="matrix" values=" 1 0 0 0 0 0 1 0 0 0 0 0 1 0 0 0 0 0 1 0"></feColorMatrix>
    </filter>
    <filter id="colorMatrixWhite">
        <feColorMatrix in="SourceGraphic" type="matrix" values="0 0 0 0 0.99609375  0 0 0 0 0.99609375  0 0 0 0 0.99609375  0 0 0 1 0"></feColorMatrix>
    </filter>
    <filter id="colorMatrixRed">
        <feColorMatrix in="SourceGraphic" type="matrix" values="0 0 0 0 0.765625  0 0 0 0 0.109375  0 0 0 0 0.09765625  0 0 0 1 0"></feColorMatrix>
    </filter>
    <filter id="colorMatrixGold">
        <feColorMatrix in="SourceGraphic" type="matrix" values="0 0 0 0 0.734375  0 0 0 0 0.609375  0 0 0 0 0.375  0 0 0 1 0"></feColorMatrix>
    </filter>
    <filter id="1">
        <feColorMatrix in="SourceGraphic" type="matrix" values=""></feColorMatrix>
    </filter>
    <filter id="2">
        <feColorMatrix in="SourceGraphic" type="matrix" values=""></feColorMatrix>
    </filter>
    <filter id="3">
        <feColorMatrix in="SourceGraphic" type="matrix" values=""></feColorMatrix>
    </filter>
    <defs>
        <clipPath id="textClip">
            <rect x="0" y="40" width="200" height="30"></rect>
            <rect x="0" y="80" width="200" height="30"></rect>
            <rect x="0" y="90" width="200" height="90"></rect>
        </clipPath>
        <filter id="logoIconColor" filterUnits="userSpaceOnUse" x="0" y="0" width="200" height="120"></filter>
        <filter id="logoIconBackgroundColor" filterUnits="userSpaceOnUse" x="0" y="0" width="200" height="120"></filter>
    </defs>
    <g transform="translate(0,0)" class="logo-group">
        <g transform="translate(145,63.19499969482422)" class="logo-icon">
            <svg version="1.0"
                xmlns="http://www.w3.org/2000/svg" preserveAspectRatio="xMidYMid meet" color-interpolation-filters="sRGB"
                xmlns:xlink="http://www.w3.org/1999/xlink" width="80" height="80">
                <svg xmlns="http://www.w3.org/2000/svg" viewBox="0 0 133.36 133.36">
                    <title>资源 30</title>
                    <g id="f6303a25-fe36-4984-a722-7c64d5824654" data-name="图层 2">
                        <g id="ade55cc6-fbbb-4c81-9668-8319f14e4d6c" data-name="图层 1">
                            <path d="M75.35,0H3.47A3.47,3.47,0,0,0,0,3.47V129.89a3.47,3.47,0,0,0,3.47,3.47H75.35a3.46,3.46,0,0,0,3.46-3.47h0V3.47A3.46,3.46,0,0,0,75.35,0ZM36.27,69.32a3.76,3.76,0,0,1-3.77,3.76H20a3.78,3.78,0,0,1-3.77-3.76h0A3.79,3.79,0,0,1,20,65.55H32.5A3.77,3.77,0,0,1,36.27,69.32Zm3.34-23.44a3.78,3.78,0,0,1-3.77,3.76H20a3.78,3.78,0,0,1-3.77-3.76h0A3.79,3.79,0,0,1,20,42.11H35.84A3.78,3.78,0,0,1,39.61,45.88ZM63,25.65A3.35,3.35,0,0,1,59.7,29H19.53a3.35,3.35,0,0,1-3.35-3.34v-.83a3.36,3.36,0,0,1,3.35-3.35H59.7A3.35,3.35,0,0,1,63,24.83ZM68.92,93a5.44,5.44,0,1,1,5.45-5.44h0A5.45,5.45,0,0,1,68.93,93h0Z" fill="#0071bc"></path>
                            <path d="M89.85,46.31A43.5,43.5,0,0,0,46.33,89.82h0c0,8.07,5.58,17.3.56,27.34-5.25,10.49-20.69,16.16-4.75,16.18H89.85a43.52,43.52,0,0,0,0-87ZM68.92,93a5.44,5.44,0,1,1,5.45-5.44h0A5.45,5.45,0,0,1,68.92,93Zm22.74.14a5.44,5.44,0,1,1,5.43-5.46v0A5.44,5.44,0,0,1,91.66,93.17Zm23.15,0a5.44,5.44,0,1,1,5.44-5.44h0a5.44,5.44,0,0,1-5.43,5.44Z" fill="#ffb600"></path>
                        </g>
                    </g>
                </svg>
            </svg>
        </g>
        <g transform="translate(136.54999923706055,153.19499969482422)" class="logo-text">
            <path d="M4.95 25.77L0.42 25.77L0.42 22.20L4.50 22.20Q6.42 22.20 7.33 22.06Q8.25 21.93 8.73 21.51L8.73 21.51Q9.39 21 9.64 20.04Q9.90 19.08 9.90 17.01L9.90 17.01L9.90 5.76L14.13 5.76L14.13 17.01Q14.13 19.11 13.98 20.19Q13.83 21.27 13.38 22.23L13.38 22.23Q12.24 24.78 9.24 25.50L9.24 25.50Q7.80 25.77 4.95 25.77L4.95 25.77ZM27.96 25.77L17.91 25.77L17.91 22.20L27.06 22.20Q29.25 22.20 29.97 21.78L29.97 21.78Q31.02 21.15 31.02 19.89L31.02 19.89Q31.02 18.42 29.79 17.76L29.79 17.76Q29.10 17.37 27.57 17.37L27.57 17.37L23.85 17.37Q20.46 17.37 18.96 16.14L18.96 16.14Q18.03 15.36 17.50 14.19Q16.98 13.02 16.98 11.67L16.98 11.67Q16.98 9.57 18.21 7.83L18.21 7.83Q19.41 6.15 22.05 5.85L22.05 5.85Q22.95 5.76 24.72 5.76L24.72 5.76L34.65 5.76L34.65 9.33L25.68 9.33Q23.67 9.36 23.01 9.51L23.01 9.51Q21.66 9.84 21.66 11.55L21.66 11.55Q21.66 12.99 22.80 13.47L22.80 13.47Q23.55 13.83 25.32 13.83L25.32 13.83L28.53 13.83Q30.99 13.83 32.19 14.25L32.19 14.25Q34.32 14.97 35.13 16.77L35.13 16.77Q35.76 18.21 35.76 19.86L35.76 19.86Q35.76 21.69 34.92 23.13L34.92 23.13Q33.75 25.17 31.41 25.59L31.41 25.59Q30.27 25.77 27.96 25.77L27.96 25.77ZM37.29 11.16L39.84 11.16L39.84 5.76L43.86 5.76L43.86 11.16L47.58 11.16L47.58 14.28L43.86 14.28L43.86 19.59Q43.86 21.45 44.19 21.93L44.19 21.93Q44.70 22.65 45.99 22.65L45.99 22.65L47.58 22.65L47.58 25.77L44.67 25.77Q42.06 25.77 40.95 24.51Q39.84 23.25 39.84 20.28L39.84 20.28L39.84 14.28L37.29 14.28L37.29 11.16ZM55.47 16.89L60.39 16.89Q60.39 15.36 59.77 14.82Q59.16 14.28 57.33 14.28L57.33 14.28L50.55 14.28L50.55 11.16L57.33 11.16Q59.16 11.16 59.85 11.23Q60.54 11.31 61.26 11.52L61.26 11.52Q64.59 12.78 64.41 17.55L64.41 17.55L64.41 25.77L55.95 25.77Q53.67 25.77 52.80 25.63Q51.93 25.50 51.27 25.08L51.27 25.08Q49.50 23.88 49.50 21.45L49.50 21.45Q49.50 19.98 50.20 18.82Q50.91 17.67 52.08 17.25L52.08 17.25Q53.10 16.89 55.47 16.89L55.47 16.89ZM60.39 22.65L60.39 20.01L55.77 20.01L55.08 20.01Q54.39 20.01 53.98 20.37Q53.58 20.73 53.58 21.36L53.58 21.36Q53.58 22.05 54.07 22.35Q54.57 22.65 55.77 22.65L55.77 22.65L60.39 22.65ZM74.88 11.16L80.37 11.16L80.37 14.28L75.57 14.28Q73.14 14.28 72.21 15.36L72.21 15.36Q71.31 16.38 71.31 18.48L71.31 18.48Q71.31 20.82 72.78 21.90L72.78 21.90Q73.38 22.32 74.08 22.48Q74.79 22.65 76.05 22.65L76.05 22.65L80.37 22.65L80.37 25.77L74.88 25.77Q72.66 25.77 71.37 25.32Q70.08 24.87 69.09 23.76L69.09 23.76Q67.20 21.66 67.20 18.42L67.20 18.42Q67.20 14.52 69.45 12.60L69.45 12.60Q70.35 11.82 71.61 11.49Q72.87 11.16 74.88 11.16L74.88 11.16ZM83.43 5.76L87.45 5.76L87.45 16.95L92.82 11.16L97.32 11.16L91.62 16.95L92.70 16.95Q94.80 16.95 95.61 18.18Q96.42 19.41 96.42 22.53L96.42 22.53L96.42 25.77L92.40 25.77L92.40 22.35Q92.40 20.97 91.95 20.50Q91.50 20.04 90.18 20.04L90.18 20.04L87.45 20.04L87.45 25.77L83.43 25.77L83.43 5.76Z" fill="#333"></path>
        </g>
        <g transform="translate(144.41499710083008,183.20499992370605)" class="logo-slug">
            <path d="M1.58 5.95L3.71 5.95L3.71 13.12Q3.71 14.24 3.50 14.87Q3.30 15.50 2.78 15.90L2.78 15.90Q2.08 16.46 0.58 16.51L0.58 16.51L-0.37 16.51L-0.37 14.90L0.18 14.90Q1.10 14.88 1.36 14.54L1.36 14.54Q1.49 14.38 1.54 14.14Q1.58 13.89 1.58 13.30L1.58 13.30L1.58 5.95ZM3.71 5.09L1.58 5.09L1.58 3.07L3.71 3.07L3.71 5.09ZM7.98 5.95L12.56 5.95L12.56 7.62L8.77 7.62Q8.11 7.62 7.94 7.68L7.94 7.68Q7.57 7.81 7.57 8.30L7.57 8.30Q7.57 8.72 7.92 8.94L7.92 8.94Q8.11 9.07 8.96 9.07L8.96 9.07L10.22 9.07Q11.44 9.07 12.14 9.58L12.14 9.58Q12.93 10.16 12.93 11.28L12.93 11.28Q12.93 12.13 12.45 12.83L12.45 12.83Q12.10 13.39 11.59 13.57Q11.09 13.74 9.90 13.74L9.90 13.74L5.47 13.74L5.47 12.08L9.30 12.08Q10 12.08 10.26 12.06L10.26 12.06Q10.83 12 10.83 11.41L10.83 11.41Q10.83 10.93 10.45 10.75L10.45 10.75Q10.26 10.66 9.52 10.66L9.52 10.66L8.22 10.66Q7.46 10.66 7.05 10.56Q6.64 10.46 6.29 10.21L6.29 10.21Q5.86 9.90 5.61 9.37Q5.36 8.83 5.36 8.22L5.36 8.22Q5.36 7.06 6.21 6.37L6.21 6.37Q6.72 5.95 7.98 5.95L7.98 5.95ZM13.78 5.95L15.14 5.95L15.14 3.07L17.28 3.07L17.28 5.95L19.26 5.95L19.26 7.62L17.28 7.62L17.28 10.45Q17.28 11.44 17.46 11.70L17.46 11.70Q17.73 12.08 18.42 12.08L18.42 12.08L19.26 12.08L19.26 13.74L17.71 13.74Q16.32 13.74 15.73 13.07Q15.14 12.40 15.14 10.82L15.14 10.82L15.14 7.62L13.78 7.62L13.78 5.95ZM23.47 9.01L26.10 9.01Q26.10 8.19 25.77 7.90Q25.44 7.62 24.46 7.62L24.46 7.62L20.85 7.62L20.85 5.95L24.46 5.95Q25.44 5.95 25.81 5.99Q26.18 6.03 26.56 6.14L26.56 6.14Q28.34 6.82 28.24 9.36L28.24 9.36L28.24 13.74L23.73 13.74Q22.51 13.74 22.05 13.67Q21.58 13.60 21.23 13.38L21.23 13.38Q20.29 12.74 20.29 11.44L20.29 11.44Q20.29 10.66 20.66 10.04Q21.04 9.42 21.66 9.20L21.66 9.20Q22.21 9.01 23.47 9.01L23.47 9.01ZM26.10 12.08L26.10 10.67L23.63 10.67L23.26 10.67Q22.90 10.67 22.68 10.86Q22.46 11.06 22.46 11.39L22.46 11.39Q22.46 11.76 22.73 11.92Q22.99 12.08 23.63 12.08L23.63 12.08L26.10 12.08ZM33.82 5.95L36.75 5.95L36.75 7.62L34.19 7.62Q32.90 7.62 32.40 8.19L32.40 8.19Q31.92 8.74 31.92 9.86L31.92 9.86Q31.92 11.10 32.70 11.68L32.70 11.68Q33.02 11.90 33.40 11.99Q33.78 12.08 34.45 12.08L34.45 12.08L36.75 12.08L36.75 13.74L33.82 13.74Q32.64 13.74 31.95 13.50Q31.26 13.26 30.74 12.67L30.74 12.67Q29.73 11.55 29.73 9.82L29.73 9.82Q29.73 7.74 30.93 6.72L30.93 6.72Q31.41 6.30 32.08 6.13Q32.75 5.95 33.82 5.95L33.82 5.95ZM38.38 3.07L40.53 3.07L40.53 9.04L43.39 5.95L45.79 5.95L42.75 9.04L43.33 9.04Q44.45 9.04 44.88 9.70Q45.31 10.35 45.31 12.02L45.31 12.02L45.31 13.74L43.17 13.74L43.17 11.92Q43.17 11.18 42.93 10.94Q42.69 10.69 41.98 10.69L41.98 10.69L40.53 10.69L40.53 13.74L38.38 13.74L38.38 3.07ZM46.85 11.66L48.78 11.66L48.78 13.74L46.85 13.74L46.85 11.66ZM50.66 16.67L50.66 5.95L54.40 5.95Q55.49 5.95 56.05 6.09Q56.61 6.22 57.12 6.62L57.12 6.62Q58.51 7.71 58.51 9.97L58.51 9.97Q58.51 11.68 57.49 12.74L57.49 12.74Q56.98 13.26 56.31 13.50Q55.65 13.74 54.69 13.74L54.69 13.74L52.80 13.74L52.80 16.67L50.66 16.67ZM54.26 7.62L52.80 7.62L52.80 12.08L54.11 12.08Q55.15 12.08 55.63 11.63L55.63 11.63Q56.30 11.04 56.30 9.81L56.30 9.81Q56.30 8.75 55.78 8.18Q55.25 7.62 54.26 7.62L54.26 7.62ZM62.22 3.07L62.22 13.74L60.08 13.74L60.08 3.07L62.22 3.07ZM67.41 12.08L69.42 12.08L69.42 5.95L71.57 5.95L71.57 13.74L67.34 13.74Q66.43 13.74 65.94 13.61Q65.44 13.47 65.06 13.12L65.06 13.12Q64.24 12.38 64.24 10.74L64.24 10.74L64.24 5.95L66.37 5.95L66.37 10.96Q66.37 11.49 66.65 11.78Q66.93 12.08 67.41 12.08L67.41 12.08ZM75.86 5.95L80.43 5.95L80.43 7.62L76.64 7.62Q75.98 7.62 75.81 7.68L75.81 7.68Q75.44 7.81 75.44 8.30L75.44 8.30Q75.44 8.72 75.79 8.94L75.79 8.94Q75.98 9.07 76.83 9.07L76.83 9.07L78.10 9.07Q79.31 9.07 80.02 9.58L80.02 9.58Q80.80 10.16 80.80 11.28L80.80 11.28Q80.80 12.13 80.32 12.83L80.32 12.83Q79.97 13.39 79.46 13.57Q78.96 13.74 77.78 13.74L77.78 13.74L73.34 13.74L73.34 12.08L77.17 12.08Q77.87 12.08 78.13 12.06L78.13 12.06Q78.70 12 78.70 11.41L78.70 11.41Q78.70 10.93 78.32 10.75L78.32 10.75Q78.13 10.66 77.39 10.66L77.39 10.66L76.10 10.66Q75.33 10.66 74.92 10.56Q74.51 10.46 74.16 10.21L74.16 10.21Q73.73 9.90 73.48 9.37Q73.23 8.83 73.23 8.22L73.23 8.22Q73.23 7.06 74.08 6.37L74.08 6.37Q74.59 5.95 75.86 5.95L75.86 5.95Z" fill="#333"></path>
        </g>
    </g>
</svg>