<svg data-v-23d2c5be="" version="1.0" xmlns="http://www.w3.org/2000/svg" xmlns:xlink="http://www.w3.org/1999/xlink" width="100%" height="100%" viewBox="0 0 340.000000 250.000000" preserveAspectRatio="xMidYMid meet" color-interpolation-filters="sRGB" class="el-tooltip" style="margin: auto;"><rect data-v-23d2c5be="" x="0" y="0" width="100%" height="100%" fill="#ffffff" fill-opacity="1" class="background"></rect> <rect data-v-23d2c5be="" x="0" y="0" width="100%" height="100%" fill="url(#watermark)" fill-opacity="1" class="watermarklayer"></rect> <g data-v-23d2c5be="" fill="#2b2b2b" class="bordersvg b-d1" transform="translate(93.61415100097656,64.60406112670898)"><polyline stroke="#2b2b2b" stroke-width="3" fill-opacity="0" fill="#ffffff" points="61.38584899902344,30 61.38584899902344,10 132.77169799804688,10 132.77169799804688,120.79187774658203 61.38584899902344,120.79187774658203 61.38584899902344,100.79187774658203"></polyline> <polyline stroke="#2b2b2b" stroke-width="3" fill-opacity="0" fill="#ffffff" points="71.38584899902344,10 71.38584899902344,0 142.77169799804688,0 142.77169799804688,110.79187774658203 132.77169799804688,110.79187774658203"></polyline> <g transform="translate(-10,30)"><g><rect stroke-width="2" class="i-icon-bg" x="0" y="0" width="142.77169799804688" height="70.79187774658203" fill-opacity="0"></rect> <!----> <!----> </g> <g transform="translate(10,3)"><g fill-rule="" class="tp-name" transform="translate(0,0)"><g><path d="M25.25 1.90L25.25 1.90Q25.50 2.60 25.25 3.25Q25 3.90 24.35 4.25L24.35 4.25Q23.65 4.50 22.98 4.25Q22.30 4 21.95 3.30L21.95 3.30Q20.70 0.15 20.20-3.40L20.20-3.40Q19.75-6.75 20.15-9.85L20.15-9.85L16.80-5.50Q16.30-4.95 15.58-4.85Q14.85-4.75 14.25-5.15L14.25-5.15Q13.70-5.65 13.60-6.38Q13.50-7.10 13.95-7.70L13.95-7.70L21.25-17.15L17.60-20Q16.90-20.55 16.93-21.38Q16.95-22.20 17.65-22.80L17.65-22.80Q20.05-24.70 22.20-25.68Q24.35-26.65 26.50-26.65L26.50-26.65Q28.70-26.65 30.85-25.68Q33-24.70 35.50-22.80L35.50-22.80Q36.15-22.20 36.15-21.38Q36.15-20.55 35.50-20L35.50-20L27.65-13.80Q27.20-13.45 26.60-13.45Q26-13.45 25.45-13.80L25.45-13.80L24.05-14.95L21.80-12.05L22.25-12.05Q23-11.95 23.43-11.38Q23.85-10.80 23.75-10.05L23.75-10.05Q23.40-7.15 23.75-3.85L23.75-3.85Q24.15-0.70 25.25 1.90ZM8.50-13.35L8.50-13.35L4.60-9.10Q4.10-8.55 3.38-8.50Q2.65-8.45 2.10-8.95L2.10-8.95Q1.55-9.50 1.53-10.20Q1.50-10.90 2-11.50L2-11.50L8.45-18.45L8.45-18.90Q8.20-23.70 7.20-28.60L7.20-28.60L4.90-25.75Q4.40-25.15 3.73-25.08Q3.05-25 2.45-25.45L2.45-25.45Q1.85-25.95 1.78-26.63Q1.70-27.30 2.15-27.90L2.15-27.90L6.15-32.90Q5.20-36.20 3.90-39.35L3.90-39.35Q3.65-40.10 3.93-40.75Q4.20-41.40 4.90-41.70L4.90-41.70Q5.60-41.95 6.28-41.68Q6.95-41.40 7.25-40.70L7.25-40.70Q8.05-38.45 8.80-36.30L8.80-36.30L12.10-40.40Q12.60-40.95 13.30-41.05Q14-41.15 14.60-40.70L14.60-40.70Q15.15-40.20 15.25-39.50Q15.35-38.80 14.90-38.20L14.90-38.20L10-32.10Q11.65-25.60 12.05-19.15L12.05-19.15Q12.60-7.65 9.70 3.05L9.70 3.05Q9.45 3.75 8.85 4.10Q8.25 4.45 7.50 4.30L7.50 4.30Q6.75 4.10 6.43 3.48Q6.10 2.85 6.30 2.10L6.30 2.10Q8.25-5.35 8.50-13.35ZM27-28.50L26.85-28.50L16.55-28.50Q15.80-28.50 15.28-29.03Q14.75-29.55 14.75-30.30L14.75-30.30Q14.75-31 15.28-31.53Q15.80-32.05 16.55-32.05L16.55-32.05L25.05-32.05L25.05-35.35L19.30-35.35Q18.60-35.35 18.07-35.88Q17.55-36.40 17.55-37.15L17.55-37.15Q17.55-37.85 18.07-38.38Q18.60-38.90 19.30-38.90L19.30-38.90L25.05-38.90L25.05-40.30Q25.05-41.05 25.58-41.58Q26.10-42.10 26.85-42.10L26.85-42.10Q27.55-42.10 28.08-41.58Q28.60-41.05 28.60-40.30L28.60-40.30L28.60-38.90L34.35-38.90Q35.10-38.90 35.60-38.38Q36.10-37.85 36.10-37.15L36.10-37.15Q36.10-36.40 35.60-35.88Q35.10-35.35 34.35-35.35L34.35-35.35L28.60-35.35L28.60-32.05L37.10-32.05Q37.85-32.05 38.38-31.53Q38.90-31 38.90-30.30L38.90-30.30Q38.90-29.55 38.38-29.03Q37.85-28.50 37.10-28.50L37.10-28.50L27-28.50ZM38.40 0.75L38.40 0.75Q38.90 1.35 38.88 2.08Q38.85 2.80 38.30 3.30L38.30 3.30Q37.75 3.80 37.02 3.78Q36.30 3.75 35.80 3.25L35.80 3.25Q33.35 0.55 31.40-3L31.40-3Q29.25-6.90 27.75-11.15L27.75-11.15Q27.50-11.85 27.80-12.50Q28.10-13.15 28.80-13.45L28.80-13.45Q29.55-13.65 30.18-13.35Q30.80-13.05 31.10-12.35L31.10-12.35Q31.55-11 32.10-9.65L32.10-9.65L35.15-13.70Q36.30-14.90 37.70-14.10L37.70-14.10Q38.25-13.65 38.35-12.95Q38.45-12.25 38-11.60L38-11.60L33.80-5.95Q34.05-5.40 34.40-4.85L34.40-4.85Q34.45-4.80 34.50-4.70L34.50-4.70Q36.25-1.55 38.40 0.75ZM21.65-21.30L21.65-21.30L26.55-17.45L31.45-21.30Q28.85-23.05 26.50-23.05L26.50-23.05Q24.35-23.05 21.65-21.30ZM75.30 3.10L75.30 3.10L52.25 3.10Q51.50 3.10 51 2.58Q50.50 2.05 50.50 1.30L50.50 1.30L50.50-19.70L50.50-19.85L50.50-37.90Q50.50-38.60 51.02-39.13Q51.55-39.65 52.25-39.65L52.25-39.65L75.30-39.65Q76.05-39.65 76.55-39.15Q77.05-38.65 77.05-37.90L77.05-37.90L77.05-19.70L77.05-19.60L77.05 1.30Q77.05 2.05 76.55 2.58Q76.05 3.10 75.30 3.10ZM73.50-17.95L54-17.95L54-0.45L73.50-0.45L73.50-17.95ZM54-21.55L73.50-21.55L73.50-36.10L54-36.10L54-21.55ZM104.45-25.40L104.45-32.65L89.95-32.65Q89.20-32.65 88.70-33.18Q88.20-33.70 88.20-34.45L88.20-34.45Q88.20-35.20 88.70-35.70Q89.20-36.20 89.95-36.20L89.95-36.20L104.45-36.20L104.45-40.60Q104.45-41.30 104.97-41.85Q105.50-42.40 106.25-42.40L106.25-42.40Q106.95-42.40 107.47-41.85Q108-41.30 108-40.60L108-40.60L108-36.20L122.50-36.20Q123.25-36.20 123.78-35.70Q124.30-35.20 124.30-34.45L124.30-34.45Q124.30-33.70 123.78-33.18Q123.25-32.65 122.50-32.65L122.50-32.65L108-32.65L108-25.40L118.55-25.40Q119.25-25.40 119.78-24.88Q120.30-24.35 120.30-23.60L120.30-23.60Q120.30-22.90 119.78-22.38Q119.25-21.85 118.55-21.85L118.55-21.85L106.25-21.85L106.10-21.85L93.95-21.85Q93.20-21.85 92.67-22.38Q92.15-22.90 92.15-23.60L92.15-23.60Q92.15-24.35 92.67-24.88Q93.20-25.40 93.95-25.40L93.95-25.40L104.45-25.40ZM99.35-2.55L99.35-2.55L99.35-17.70Q99.35-18.40 99.85-18.95Q100.35-19.50 101.10-19.50L101.10-19.50Q101.85-19.50 102.38-18.95Q102.90-18.40 102.90-17.70L102.90-17.70L102.90-2.55Q102.90-1.30 103.80-0.35L103.80-0.35Q104.65 0.55 105.85 0.55L105.85 0.55L108.85 0.55Q110 0.55 110.75-0.30L110.75-0.30Q111.70-1.15 111.80-2.70L111.80-2.70L111.95-4.85Q112-5.60 112.53-6.08Q113.05-6.55 113.80-6.50L113.80-6.50Q114.55-6.45 115.03-5.93Q115.50-5.40 115.45-4.65L115.45-4.65L115.30-2.50Q115.15 0.35 113.35 2.20L113.35 2.20Q111.50 4.15 108.85 4.15L108.85 4.15L105.85 4.15Q103.15 4.15 101.20 2.15L101.20 2.15Q99.35 0.15 99.35-2.55ZM92.10 2.65L92.10 2.65Q91.80 3.35 91.15 3.65Q90.50 3.95 89.75 3.65L89.75 3.65Q89.05 3.35 88.80 2.70Q88.55 2.05 88.80 1.30L88.80 1.30Q90.40-2.55 91.35-7.20L91.35-7.20Q92.35-12.35 92.45-16.90L92.45-16.90Q92.45-17.65 92.97-18.15Q93.50-18.65 94.25-18.65L94.25-18.65Q94.95-18.65 95.47-18.10Q96-17.55 96-16.85L96-16.85Q95.85-12 94.80-6.45L94.80-6.45Q93.85-1.45 92.10 2.65ZM120-17.25L120-17.25L123.75 1.65Q123.85 2.40 123.47 3Q123.10 3.60 122.35 3.75L122.35 3.75Q121.60 3.90 121 3.50Q120.40 3.10 120.25 2.35L120.25 2.35L116.50-16.55Q116.35-17.30 116.78-17.90Q117.20-18.50 117.95-18.65L117.95-18.65Q118.70-18.75 119.28-18.38Q119.85-18 120-17.25ZM107.20-10.05L107.20-10.05L107.20-18Q107.20-18.70 107.72-19.23Q108.25-19.75 108.95-19.75L108.95-19.75Q109.70-19.75 110.22-19.23Q110.75-18.70 110.75-18L110.75-18L110.75-10.05Q110.75-9.30 110.22-8.78Q109.70-8.25 108.95-8.25L108.95-8.25Q108.25-8.25 107.72-8.78Q107.20-9.30 107.20-10.05Z" transform="translate(-1.52392578125, 42.400000000000006)"></path></g> <!----> <!----> <!----> <!----> <!----> <!----> <!----></g> <g fill-rule="" hollow-target="custom" class="tp-slogan" transform="translate(1.9258499145507812,53.775001525878906)"><!----> <!----> <g><path d="M11.16-4.97L11.16-4.97L11.16-3.80Q10.41-3.89 9-3.89L9-3.89L3.05-3.89Q1.55-3.89 0.75-3.80L0.75-3.80L0.75-4.97Q1.64-4.88 2.95-4.88L2.95-4.88L8.91-4.88Q10.41-4.88 11.16-4.97ZM17.39-9.80L17.39-9.80Q18.38-9.52 18.61-9.38L18.61-9.38Q18.61-9.28 18.47-9.23L18.47-9.23Q18.33-9.14 18.28-9.05L18.28-9.05Q19.73-6.09 23.44-5.25L23.44-5.25Q22.92-4.92 22.45-4.13L22.45-4.13Q18.98-5.77 17.77-8.34L17.77-8.34Q16.55-5.95 13.36-3.80L13.36-3.80Q12.84-4.41 12.33-4.64L12.33-4.64Q16.17-6.33 17.39-9.80ZM17.16-5.95L17.16-5.95Q17.25-5.95 17.39-5.95L17.39-5.95Q18.61-5.86 18.56-5.81L18.56-5.81Q18.56-5.77 18.52-5.72L18.52-5.72Q18.33-5.30 18.33-4.83L18.33-4.83L18.33-0.47Q18.33 0.66 18.42 1.22L18.42 1.22L17.16 1.22Q17.25 0.56 17.25-0.47L17.25-0.47L17.25-4.55Q17.25-5.06 17.20-5.58L17.20-5.58Q17.16-5.86 17.16-5.95ZM28.55-9.47L28.55-9.47Q29.30-8.72 29.20-8.58L29.20-8.58Q29.16-8.53 29.02-8.53L29.02-8.53Q28.78-8.53 28.64-8.48L28.64-8.48Q28.55-8.48 28.31-8.44L28.31-8.44Q27.84-8.34 27.66-8.30L27.66-8.30L27.66-6.33L27.84-6.33Q28.73-6.33 29.06-6.38L29.06-6.38L29.06-5.48Q28.69-5.53 27.80-5.53L27.80-5.53L27.66-5.53L27.66-4.22L28.17-4.55Q28.64-3.98 29.16-3.19L29.16-3.19L28.31-2.77Q28.08-3.42 27.66-3.98L27.66-3.98L27.66-0.38Q27.66 0.66 27.70 0.94L27.70 0.94L26.67 0.94Q26.77 0.42 26.77-0.38L26.77-0.38L26.77-3.89Q26.20-2.53 25.27-1.08L25.27-1.08Q24.89-1.64 24.61-2.02L24.61-2.02Q25.59-2.77 26.77-5.53L26.77-5.53L26.16-5.53Q25.22-5.53 24.94-5.48L24.94-5.48L24.94-6.38Q25.27-6.33 26.16-6.33L26.16-6.33L26.77-6.33L26.77-8.11Q25.64-7.83 25.31-7.83L25.31-7.83L24.89-8.63Q26.67-8.77 28.55-9.47ZM30.70-8.11L30.70-6.47L33.61-6.47L33.61-8.11L30.70-8.11ZM29.34-3.75L29.34-4.78Q30.14-4.69 31.08-4.69L31.08-4.69L33.09-4.69Q33.70-4.69 34.83-4.78L34.83-4.78L34.83-3.75Q34.08-3.80 33.09-3.84L33.09-3.84L32.53-3.84L32.53-2.53L33.05-2.53Q33.66-2.53 34.69-2.63L34.69-2.63L34.69-1.69Q34.45-1.69 33.61-1.73L33.61-1.73Q33.19-1.73 33.09-1.73L33.09-1.73L32.53-1.73L32.53-0.23L33.38-0.23Q33.52-0.23 34.13-0.28L34.13-0.28Q35.06-0.33 35.34-0.33L35.34-0.33L35.34 0.56Q34.59 0.52 33.38 0.47L33.38 0.47L30.70 0.47Q29.63 0.52 28.83 0.56L28.83 0.56L28.83-0.33Q29.63-0.28 30.70-0.23L30.70-0.23L31.59-0.23L31.59-1.73L31.08-1.73Q29.86-1.73 29.44-1.69L29.44-1.69L29.44-2.63Q30.19-2.53 31.03-2.53L31.03-2.53L31.59-2.53L31.59-3.84L31.08-3.84Q30.09-3.84 29.34-3.75L29.34-3.75ZM29.67-9.05L29.67-9.05Q29.95-8.91 30.66-8.91L30.66-8.91L33.61-8.91Q34.17-8.91 34.69-9.05L34.69-9.05Q34.59-8.72 34.59-8.11L34.59-8.11L34.59-6.47Q34.59-5.86 34.69-5.53L34.69-5.53Q34.03-5.67 33.66-5.63L33.66-5.63L30.66-5.63Q30.05-5.63 29.67-5.53L29.67-5.53Q29.77-5.95 29.77-6.47L29.77-6.47L29.77-8.16Q29.77-8.48 29.67-9.05ZM41.34-9.42L42.52-9.56Q42.61-9.23 42.75-8.77L42.75-8.77Q42.84-8.34 42.94-8.16L42.94-8.16L44.72-8.16Q45.75-8.16 46.83-8.25L46.83-8.25L46.83-7.27Q45.70-7.36 44.67-7.36L44.67-7.36L38.77-7.36Q38.81-4.08 38.53-2.39L38.53-2.39Q38.20-0.56 37.36 0.80L37.36 0.80Q36.89 0.47 36.23 0.42L36.23 0.42Q37.22-0.52 37.55-2.53L37.55-2.53Q37.73-3.52 37.78-4.88L37.78-4.88Q37.78-6 37.73-8.25L37.73-8.25Q38.48-8.16 39.42-8.16L39.42-8.16L41.86-8.16Q41.86-8.11 41.86-8.20L41.86-8.20Q41.67-8.86 41.34-9.42L41.34-9.42ZM41.53-6.47L45.89-6.47L45.89-5.39Q45.84-5.39 45.80-5.39L45.80-5.39Q44.91-5.34 43.03-3.84L43.03-3.84L46.69-3.84Q46.59-3.66 46.45-3.28L46.45-3.28Q46.08-2.44 45.89-1.92L45.89-1.92L44.72-1.97Q44.95-2.25 45.52-3.09L45.52-3.09L43.31-3.09L43.31 0.23Q43.31 0.80 41.81 0.98L41.81 0.98Q41.53 1.03 41.44 1.03L41.44 1.03Q41.30 0.38 40.97 0L40.97 0Q42.52 0.05 42.38-0.28L42.38-0.28L42.38-3.09L40.78-3.09Q39.84-3.09 39.05-3L39.05-3L39.05-3.94Q40.31-3.84 40.83-3.84L40.83-3.84L42.33-3.84Q41.81-4.36 40.97-4.83L40.97-4.83L41.77-5.39Q42.61-4.78 42.80-4.59L42.80-4.59L44.34-5.63L41.48-5.63Q40.13-5.63 39.61-5.58L39.61-5.58L39.61-6.52Q40.27-6.47 41.53-6.47L41.53-6.47ZM55.08-9.66L55.08-9.66Q56.39-9.66 56.34-9.56L56.34-9.56Q56.34-9.56 56.30-9.52L56.30-9.52Q56.06-9.23 56.06-8.44L56.06-8.44L57.84-8.44Q58.03-8.44 58.88-8.48L58.88-8.48L58.88-7.59Q58.41-7.69 57.75-7.69L57.75-7.69L56.06-7.69L56.06-6.80L57.66-6.80Q58.64-6.80 59.30-6.89L59.30-6.89L59.30-5.95Q58.55-6.05 57.33-6.05L57.33-6.05L53.48-6.05Q52.73-6.05 52.03-5.95L52.03-5.95L52.03-6.84Q52.73-6.80 53.44-6.80L53.44-6.80L55.17-6.80L55.17-7.69L53.81-7.69Q53.30-7.69 52.73-7.64L52.73-7.64L52.73-8.53Q52.78-8.53 52.88-8.53L52.88-8.53Q53.44-8.44 53.86-8.44L53.86-8.44L55.17-8.44Q55.17-9.28 55.08-9.66ZM48.94-8.63L49.78-9.28Q50.06-8.91 50.44-8.34L50.44-8.34Q50.63-8.06 50.72-7.92L50.72-7.92Q51.28-8.48 51.66-9.23L51.66-9.23Q52.13-8.91 52.69-8.48L52.69-8.48Q52.69-8.44 52.59-8.39L52.59-8.39Q52.08-8.06 51.23-7.08L51.23-7.08Q51.56-5.95 51.75-4.17L51.75-4.17Q51.89-2.48 51.75-1.17L51.75-1.17Q53.25-1.78 54.38-2.91L54.38-2.91Q53.25-2.91 52.73-2.86L52.73-2.86Q52.83-3.42 52.83-3.89L52.83-3.89L52.83-4.69Q52.83-5.06 52.78-5.44L52.78-5.44Q53.63-5.34 54.56-5.34L54.56-5.34L56.30-5.34Q57.38-5.30 58.31-5.39L58.31-5.39Q58.27-4.97 58.27-4.59L58.27-4.59L58.27-3.84Q58.27-3.33 58.31-2.81L58.31-2.81Q57.84-2.91 57.19-2.91L57.19-2.91L56.20-2.91Q56.44-2.20 56.86-1.55L56.86-1.55Q57.80-2.16 58.22-2.72L58.22-2.72Q59.16-2.06 59.06-1.92L59.06-1.92Q59.02-1.88 58.92-1.88L58.92-1.88Q58.31-1.69 57.33-1.03L57.33-1.03Q58.13-0.42 59.44-0.14L59.44-0.14Q58.92 0.19 58.69 0.80L58.69 0.80Q56.30-0.05 55.31-2.86L55.31-2.86Q54.98-2.44 54.70-2.11L54.70-2.11L54.61-0.14Q55.03-0.33 55.78-0.98L55.78-0.98Q55.78-0.42 56.02 0L56.02 0Q55.41 0.23 53.86 1.22L53.86 1.22Q53.77 0.80 53.25 0.33L53.25 0.33Q53.72 0 53.72-0.28L53.72-0.28L53.77-1.36Q53.20-0.80 52.36-0.28L52.36-0.28Q52.08-0.75 51.75-1.03L51.75-1.03Q51.61 0.56 49.45 0.89L49.45 0.89Q49.41 0.23 48.89-0.23L48.89-0.23Q50.30-0.05 50.53-0.70L50.53-0.70Q50.91-1.59 50.86-4.03L50.86-4.03Q50.77-3.89 50.48-3.52L50.48-3.52Q49.55-2.11 48.80-1.31L48.80-1.31Q48.80-1.97 48.33-2.44L48.33-2.44Q49.78-3.52 50.67-5.39L50.67-5.39Q50.67-5.95 50.44-6.47L50.44-6.47Q49.78-5.72 49.08-5.30L49.08-5.30Q48.89-5.81 48.42-6.09L48.42-6.09Q49.31-6.52 50.11-7.27L50.11-7.27Q49.50-8.11 48.94-8.63L48.94-8.63ZM57.38-3.66L57.38-4.59L53.72-4.59L53.72-3.66L57.38-3.66ZM67.41-9.75L67.41-9.75Q68.67-9.38 68.67-9.23L68.67-9.23Q68.67-9.19 68.58-9.14L68.58-9.14Q68.39-9.05 68.34-8.86L68.34-8.86Q67.92-8.16 67.69-7.41L67.69-7.41L69.42-7.41Q70.45-7.41 71.02-7.45L71.02-7.45Q70.64-1.31 70.55-0.23L70.55-0.23Q70.41 1.08 67.97 1.17L67.97 1.17Q67.83 0.47 67.41-0.05L67.41-0.05Q68.67 0.19 69.33-0.09L69.33-0.09Q69.66-0.05 69.80-4.27L69.80-4.27Q69.89-5.77 69.94-6.66L69.94-6.66L67.36-6.66Q66.89-5.77 66.23-4.59L66.23-4.59Q65.81-4.88 65.39-4.97L65.39-4.97L65.39-0.75Q65.39 0.42 65.44 0.75L65.44 0.75L64.36 0.75Q64.41 0.33 64.41-0.38L64.41-0.38L62.11-0.38Q62.11 0.33 62.16 0.84L62.16 0.84L61.08 0.84Q61.13 0.42 61.13-0.70L61.13-0.70L61.13-5.72Q61.13-5.91 61.08-6.61L61.08-6.61Q61.08-7.22 61.08-7.36L61.08-7.36Q61.78-7.31 62.11-7.31L62.11-7.31L62.44-7.31Q62.58-8.06 62.67-9.61L62.67-9.61Q63.98-9.47 63.89-9.28L63.89-9.28Q63.89-9.19 63.80-9.09L63.80-9.09Q63.70-9 63.66-8.86L63.66-8.86Q63.52-8.53 63.38-7.92L63.38-7.92Q63.28-7.55 63.23-7.31L63.23-7.31L64.03-7.31Q64.41-7.31 65.44-7.36L65.44-7.36Q65.39-7.03 65.39-5.86L65.39-5.86L65.39-5.20Q66.84-6.84 67.41-9.75ZM64.41-6.56L62.11-6.56L62.11-4.13L64.41-4.13L64.41-6.56ZM66.61-4.17L67.41-4.64Q67.69-4.27 68.39-2.91L68.39-2.91Q68.58-2.63 68.63-2.48L68.63-2.48L67.73-2.02Q67.59-2.58 66.61-4.17L66.61-4.17ZM64.41-3.42L62.11-3.42L62.11-1.13L64.41-1.13L64.41-3.42ZM82.36-8.30L82.36-8.30L82.36-7.22Q82.08-7.27 80.48-7.27L80.48-7.27L78.52-7.27L78.52-0.98L80.91-0.98Q82.41-0.98 83.20-1.08L83.20-1.08L83.20 0Q82.41-0.09 80.95-0.09L80.95-0.09L74.72-0.09Q73.31-0.09 72.80 0L72.80 0L72.80-1.08Q73.41-1.03 74.67-0.98L74.67-0.98L77.48-0.98L77.48-7.27L75.66-7.27Q74.39-7.27 73.69-7.17L73.69-7.17L73.69-8.30Q74.02-8.25 75.66-8.25L75.66-8.25L80.44-8.25Q81.98-8.25 82.36-8.30ZM90.42-9.56L90.42-9.56Q91.45-9.33 91.55-9.14L91.55-9.14Q91.50-9.05 91.36-8.86L91.36-8.86Q91.17-8.72 91.13-8.63L91.13-8.63Q91.08-8.53 90.89-8.20L90.89-8.20Q90.70-7.83 90.56-7.59L90.56-7.59L93.47-7.59Q94.41-7.59 95.30-7.69L95.30-7.69L95.30-6.70Q94.88-6.75 93.42-6.80L93.42-6.80L91.45-6.80L91.45-4.92L93.23-4.92Q93.94-4.92 94.83-5.02L94.83-5.02L94.83-4.03Q94.08-4.13 93.23-4.13L93.23-4.13L91.45-4.13L91.45-2.06L93.42-2.06Q94.36-2.11 95.06-2.16L95.06-2.16L95.06-1.17Q94.41-1.22 93.42-1.27L93.42-1.27L91.45-1.27L91.45-0.56Q91.45 0.56 91.55 1.03L91.55 1.03L90.42 1.03Q90.52 0.19 90.52-0.70L90.52-0.70L90.52-6.80L90.14-6.80L88.92-4.59Q88.50-4.88 87.94-5.02L87.94-5.02Q89.48-6.94 90.42-9.56ZM87.09-9.52L87.09-9.52Q88.27-9.14 88.22-8.95L88.22-8.95Q88.22-8.86 88.08-8.77L88.08-8.77Q87.89-8.58 87.80-8.39L87.80-8.39Q87.38-7.45 87.19-6.98L87.19-6.98L87.19-0.98Q87.19-0.75 87.23 0L87.23 0Q87.23 0.56 87.23 0.70L87.23 0.70L86.25 0.70Q86.34-0.09 86.34-0.98L86.34-0.98L86.34-5.53L85.22-3.61Q84.98-3.89 84.47-4.41L84.47-4.41Q86.11-6.42 87.09-9.52ZM98.63-9.52L98.63-9.52Q99.80-9 99.89-8.81L99.89-8.81Q99.89-8.77 99.70-8.63L99.70-8.63Q99.52-8.48 99.47-8.39L99.47-8.39Q98.77-7.17 97.69-5.72L97.69-5.72Q98.53-5.77 99.61-5.91L99.61-5.91Q99.89-6.47 100.27-7.36L100.27-7.36Q101.44-6.75 101.39-6.66L101.39-6.66Q101.34-6.56 101.25-6.47L101.25-6.47Q101.06-6.33 100.97-6.19L100.97-6.19Q100.92-6.09 100.73-5.86L100.73-5.86Q98.91-3.38 97.78-2.67L97.78-2.67Q98.20-2.72 100.83-3.19L100.83-3.19L100.59-2.20Q99-2.16 97.13-1.73L97.13-1.73L96.80-2.81Q97.17-2.91 97.88-3.56L97.88-3.56Q98.34-4.03 99.19-5.20L99.19-5.20Q97.22-4.88 96.84-4.73L96.84-4.73L96.52-5.77Q97.13-6.09 97.41-6.56L97.41-6.56Q98.20-7.73 98.63-9.52ZM106.36-8.72L106.36-8.72Q105.75-7.59 104.72-6.42L104.72-6.42Q105.94-5.72 107.48-4.64L107.48-4.64L106.69-3.75Q106.36-4.08 104.72-5.34L104.72-5.34Q104.25-5.67 104.11-5.81L104.11-5.81Q103.08-4.78 101.34-3.70L101.34-3.70Q101.02-4.13 100.36-4.45L100.36-4.45Q103.13-5.53 104.67-7.88L104.67-7.88L102.84-7.88Q101.30-7.88 101.16-7.83L101.16-7.83L101.16-8.81Q101.30-8.81 101.53-8.77L101.53-8.77Q102.23-8.72 102.84-8.72L102.84-8.72L104.53-8.72Q105.42-8.72 106.31-8.81L106.31-8.81Q106.41-8.81 106.36-8.72ZM101.25-2.48L101.25-3.47Q101.67-3.42 102.89-3.42L102.89-3.42L104.91-3.42Q105-3.42 105.52-3.42L105.52-3.42Q106.36-3.47 106.69-3.47L106.69-3.47L106.69-2.48Q105.75-2.58 104.91-2.58L104.91-2.58L104.34-2.58L104.34-0.19L105.66-0.19Q106.45-0.19 107.20-0.28L107.20-0.28L107.20 0.70Q106.69 0.61 105.66 0.61L105.66 0.61L102.42 0.61Q101.53 0.61 100.78 0.70L100.78 0.70L100.78-0.23Q101.16-0.19 102.42-0.19L102.42-0.19L103.36-0.19L103.36-2.53L102.89-2.53Q102.61-2.53 101.95-2.48L101.95-2.48Q101.44-2.48 101.25-2.48L101.25-2.48ZM100.69-1.17L100.69-1.17L100.50-0.14Q98.39 0.33 97.03 0.56L97.03 0.56L96.70-0.61Q98.11-0.61 100.69-1.17ZM115.27-9.61L115.27-9.61Q116.44-9.47 116.53-9.28L116.53-9.28Q116.53-9.19 116.44-9.09L116.44-9.09Q116.34-9 116.34-8.95L116.34-8.95Q117.19-7.13 119.67-6.05L119.67-6.05Q119.20-5.72 118.97-5.06L118.97-5.06Q116.34-6.47 115.92-8.53L115.92-8.53Q115.22-6.84 113.11-4.78L113.11-4.78Q112.78-5.16 112.27-5.44L112.27-5.44Q114.52-6.89 115.27-9.61ZM117.28-4.27L117.28-4.27Q118.45-4.08 118.55-3.84L118.55-3.84Q118.55-3.80 118.41-3.66L118.41-3.66Q118.27-3.47 118.22-3.33L118.22-3.33Q118.17-3.23 118.13-3.05L118.13-3.05Q117.56-1.13 117.14-0.05L117.14-0.05L117.42-0.05Q118.45-0.05 118.92-0.09L118.92-0.09L118.92 0.70Q118.41 0.66 117.42 0.66L117.42 0.66L114.75 0.66Q113.44 0.66 112.97 0.70L112.97 0.70L112.97-0.14Q113.81-0.05 114.75-0.05L114.75-0.05L116.20-0.05Q117-1.88 117.28-4.27ZM114.98-4.08L115.97-4.22Q116.30-2.53 116.34-1.41L116.34-1.41L115.36-1.27Q115.31-2.81 114.98-4.08L114.98-4.08ZM113.30-3.80L114.14-3.98Q114.61-2.81 114.89-0.94L114.89-0.94L113.91-0.75Q113.77-2.77 113.30-3.80L113.30-3.80ZM111.33-2.11L111.33-2.11L111.33-1.22Q111.05-1.17 110.25-0.98L110.25-0.98Q109.03-0.70 108.75-0.66L108.75-0.66L108.56-1.73Q109.41-1.78 111.33-2.11ZM112.08-3.89L112.08-3.89Q112.36-3.89 112.88-3.94L112.88-3.94Q112.88-3.75 112.83-3.33L112.83-3.33Q112.73 0.09 112.41 0.42L112.41 0.42Q112.08 0.94 110.72 1.13L110.72 1.13Q110.53 1.17 110.44 1.17L110.44 1.17Q110.34 0.56 109.97 0.05L109.97 0.05Q111.23 0.23 111.56-0.14L111.56-0.14Q111.89-0.52 111.94-3.14L111.94-3.14Q110.91-3.05 109.08-2.91L109.08-2.91Q109.17-3.66 109.22-4.92L109.22-4.92Q109.27-6.38 109.22-6.98L109.22-6.98Q110.34-6.98 110.39-6.80L110.39-6.80Q110.39-6.75 110.34-6.61L110.34-6.61Q110.25-6.38 110.20-6.14L110.20-6.14Q110.20-6.05 110.16-5.81L110.16-5.81Q110.02-4.17 110.02-3.75L110.02-3.75Q110.11-3.75 110.53-3.75L110.53-3.75Q111.05-3.80 111.23-3.80L111.23-3.80Q111.42-6.56 111.52-7.78L111.52-7.78Q109.36-7.73 108.61-7.59L108.61-7.59L108.61-8.72Q109.22-8.67 109.92-8.63L109.92-8.63Q110.53-8.63 112.55-8.67L112.55-8.67Q112.27-6.42 112.08-3.89ZM114.14-4.88L114.14-5.72Q114.23-5.72 114.61-5.72L114.61-5.72Q115.27-5.67 115.50-5.67L115.50-5.67L116.11-5.67Q116.20-5.67 116.67-5.67L116.67-5.67Q117.47-5.72 117.70-5.72L117.70-5.72L117.70-4.83Q117.33-4.92 116.16-4.92L116.16-4.92L115.55-4.92Q114.56-4.92 114.14-4.88L114.14-4.88Z" transform="translate(-0.75, 9.796875)"></path></g></g></g></g></g></svg>